<svg version="1.1" viewBox="0.0 0.0 382.78740157480314 368.8530183727034" fill="none" stroke="none" stroke-linecap="square" stroke-miterlimit="10" xmlns:xlink="http://www.w3.org/1999/xlink" xmlns="http://www.w3.org/2000/svg"><clipPath id="p.0"><path d="m0 0l382.7874 0l0 368.85303l-382.7874 0l0 -368.85303z" clip-rule="nonzero"/></clipPath><g clip-path="url(#p.0)"><path fill="#000000" fill-opacity="0.0" d="m0 0l382.7874 0l0 368.85303l-382.7874 0z" fill-rule="evenodd"/><path fill="#007ea7" d="m72.580055 118.34121l0 0c0 -60.629562 49.149963 -109.779526 109.77952 -109.779526l0 0c29.115341 0 57.038193 11.566025 77.62587 32.15368c20.587646 20.587654 32.153656 48.51051 32.153656 77.625854l0 0c0 60.629555 -49.149963 109.77952 -109.779526 109.77952l0 0c-60.629555 0 -109.77952 -49.149963 -109.77952 -109.77952z" fill-rule="evenodd"/><path stroke="#ffffff" stroke-width="4.0" stroke-linejoin="round" stroke-linecap="butt" d="m72.580055 118.34121l0 0c0 -60.629562 49.149963 -109.779526 109.77952 -109.779526l0 0c29.115341 0 57.038193 11.566025 77.62587 32.15368c20.587646 20.587654 32.153656 48.51051 32.153656 77.625854l0 0c0 60.629555 -49.149963 109.77952 -109.779526 109.77952l0 0c-60.629555 0 -109.77952 -49.149963 -109.77952 -109.77952z" fill-rule="evenodd"/><path fill="#ffffff" d="m152.81627 46.819096l0 0c0 -5.438881 4.409088 -9.847965 9.847977 -9.847965l39.39067 0l0 0c2.611847 0 5.1167145 1.0375481 6.963562 2.8843994c1.8468628 1.8468513 2.8844147 4.3517227 2.8844147 6.963566l0 143.04424c0 5.4388733 -4.409088 9.847961 -9.847977 9.847961l-39.39067 0c-5.4388885 0 -9.847977 -4.409088 -9.847977 -9.847961z" fill-rule="evenodd"/><path fill="#ffffff" d="m253.8817 88.7979l0 0c5.4388885 0 9.847946 4.409088 9.847946 9.847969l0 39.39068l0 0c0 2.611847 -1.0375366 5.1167145 -2.8843994 6.963562c-1.8468323 1.8468628 -4.351715 2.8844147 -6.9635468 2.8844147l-143.04422 0c-5.4388885 0 -9.847969 -4.409088 -9.847969 -9.847977l0 -39.39068c0 -5.438881 4.4090805 -9.847969 9.847969 -9.847969z" fill-rule="evenodd"/><path fill="#000000" fill-opacity="0.0" d="m0 197.30971l396.7874 0l0 142.20473l-396.7874 0z" fill-rule="evenodd"/><path fill="#102851" d="m17.921875 303.58972l0 -70.937515l17.21875 0l0 70.937515l-17.21875 0zm8.0 -27.15625l0 -14.390625l36.6875 0l0 14.390625l-36.6875 0zm0 -28.57814l0 -15.203125l40.828125 0l0 15.203125l-40.828125 0zm78.03017 55.73439l28.0625 -70.937515l14.59375 0l27.859375 70.937515l-17.421875 0l-13.375 -35.96875q-0.8125 -2.125 -1.625 -4.5625q-0.8125 -2.4375 -1.625 -5.015625q-0.8125 -2.5781403 -1.578125 -5.0625153q-0.75 -2.484375 -1.25 -4.609375l3.03125 -0.109375q-0.609375 2.53125 -1.375 4.96875q-0.75 2.4375 -1.515625 4.8125153q-0.75 2.375 -1.671875 4.765625q-0.90625 2.375 -1.71875 4.90625l-13.375 35.875l-17.015625 0zm13.375 -13.578125l5.359375 -12.96875l32.625 0l5.28125 12.96875l-43.265625 0zm121.88736 14.59375q-6.984375 0 -12.609375 -1.671875q-5.625 -1.671875 -9.984375 -4.859375q-4.359375 -3.203125 -7.796875 -7.5625l10.4375 -11.84375q5.0625 6.78125 10.171875 9.109375q5.125 2.328125 10.59375 2.328125q2.734375 0 4.96875 -0.703125q2.234375 -0.703125 3.4375 -2.0625q1.21875 -1.375 1.21875 -3.40625q0 -1.515625 -0.765625 -2.734375q-0.75 -1.21875 -2.078125 -2.125q-1.3125 -0.921875 -3.140625 -1.671875q-1.8125 -0.765625 -3.84375 -1.3125q-2.03125 -0.5625 -4.15625 -0.96875q-5.875 -1.328125 -10.234375 -3.25q-4.359375 -1.921875 -7.25 -4.703125q-2.875 -2.796875 -4.296875 -6.390625q-1.421875 -3.59375 -1.421875 -8.04689q0 -4.765625 2.171875 -8.765625q2.1875 -4.015625 5.875 -6.890625q3.703125 -2.890625 8.5625 -4.453125q4.875 -1.578125 10.140625 -1.578125q7.0 0 12.015625 1.46875q5.0156403 1.46875 8.60939 4.203125q3.59375 2.734375 6.125 6.578125l-10.64064 10.234375q-2.125 -2.625 -4.609375 -4.34375q-2.484375 -1.734375 -5.265625 -2.640625q-2.78125 -0.90625 -5.71875 -0.90625q-3.046875 0 -5.234375 0.765625q-2.171875 0.75 -3.390625 2.125q-1.203125 1.359375 -1.203125 3.28125q0 1.71875 1.0 2.9375q1.015625 1.21875 2.734375 2.1875153q1.734375 0.953125 3.953125 1.625q2.234375 0.65625 4.671875 1.0625q5.5625 1.109375 10.078125 2.9375q4.5156403 1.8125 7.7968903 4.453125q3.296875 2.640625 5.0625 6.234375q1.78125 3.59375 1.78125 8.359375q0 7.390625 -3.59375 12.515625q-3.59375 5.109375 -9.82814 7.796875q-6.234375 2.6875 -14.34375 2.6875zm88.55763 -1.015625l0 -55.73439l-21.0625 0l0 -15.203125l59.875 0l0 15.203125l-21.578125 0l0 55.73439l-17.234375 0z" fill-rule="nonzero"/><path fill="#000000" fill-opacity="0.0" d="m6.6850395 310.2126l366.70868 0l0 51.716553l-366.70868 0z" fill-rule="evenodd"/><path fill="#102851" d="m18.294415 344.8126l0 -18.65625l2.875 0l0 18.65625l-2.875 0zm1.28125 -7.9375l0 -2.78125l9.625 0l0 2.78125l-9.625 0zm0 -7.953125l0 -2.765625l10.828125 0l0 2.765625l-10.828125 0zm14.531372 15.890625l0 -14.0l2.75 0l0 14.0l-2.75 0zm1.328125 -17.09375q-0.875 0 -1.359375 -0.453125q-0.484375 -0.453125 -0.484375 -1.265625q0 -0.78125 0.5 -1.25q0.5 -0.484375 1.34375 -0.484375q0.875 0 1.359375 0.453125q0.484375 0.453125 0.484375 1.28125q0 0.765625 -0.5 1.25q-0.484375 0.46875 -1.34375 0.46875zm5.6291656 17.09375l0 -14.0l2.765625 0l0 4.40625l-0.265625 -1.0625q0.296875 -1.015625 1.0 -1.84375q0.703125 -0.828125 1.625 -1.296875q0.921875 -0.484375 1.90625 -0.484375q0.453125 0 0.859375 0.078125q0.421875 0.078125 0.65625 0.1875l-0.71875 2.984375q-0.3125 -0.140625 -0.703125 -0.234375q-0.390625 -0.09375 -0.75 -0.09375q-0.71875 0 -1.375 0.28125q-0.65625 0.28125 -1.15625 0.78125q-0.484375 0.484375 -0.78125 1.140625q-0.296875 0.65625 -0.296875 1.421875l0 7.734375l-2.765625 0zm15.398682 0.265625q-1.75 0 -3.171875 -0.609375q-1.40625 -0.609375 -2.34375 -1.8125l1.875 -1.609375q0.796875 0.9375 1.734375 1.359375q0.953125 0.40625 2.15625 0.40625q0.46875 0 0.875 -0.109375q0.421875 -0.125 0.734375 -0.359375q0.3125 -0.25 0.46875 -0.578125q0.15625 -0.34375 0.15625 -0.734375q0 -0.703125 -0.5 -1.125q-0.265625 -0.1875 -0.84375 -0.40625q-0.578125 -0.234375 -1.484375 -0.46875q-1.546875 -0.40625 -2.53125 -0.90625q-0.984375 -0.515625 -1.515625 -1.15625q-0.40625 -0.5 -0.59375 -1.09375q-0.1875 -0.609375 -0.1875 -1.328125q0 -0.875 0.390625 -1.609375q0.390625 -0.734375 1.0625 -1.28125q0.6875 -0.546875 1.609375 -0.828125q0.921875 -0.296875 1.953125 -0.296875q0.984375 0 1.953125 0.265625q0.984375 0.265625 1.8125 0.78125q0.828125 0.5 1.375 1.1875l-1.5625 1.734375q-0.515625 -0.515625 -1.109375 -0.890625q-0.59375 -0.390625 -1.21875 -0.59375q-0.609375 -0.21875 -1.109375 -0.21875q-0.5625 0 -1.015625 0.109375q-0.453125 0.09375 -0.765625 0.3125q-0.296875 0.21875 -0.46875 0.53125q-0.15625 0.3125 -0.15625 0.71875q0.03125 0.34375 0.171875 0.65625q0.15625 0.296875 0.421875 0.515625q0.28125 0.21875 0.859375 0.453125q0.59375 0.234375 1.515625 0.453125q1.328125 0.34375 2.1875 0.765625q0.875 0.40625 1.375 0.9375q0.53125 0.515625 0.75 1.1875q0.21875 0.65625 0.21875 1.484375q0 1.203125 -0.6875 2.15625q-0.671875 0.9375 -1.828125 1.46875q-1.140625 0.53125 -2.5625 0.53125zm9.846416 -0.265625l0 -17.5625l2.734375 0l0 17.5625l-2.734375 0zm-2.9062462 -11.328125l0 -2.671875l8.906246 0l0 2.671875l-8.906246 0zm17.621563 11.328125l7.21875 -18.65625l2.9375 0l7.171875 18.65625l-3.078125 0l-4.265625 -11.25q-0.078125 -0.1875 -0.3125 -0.90625q-0.21875 -0.71875 -0.515625 -1.59375q-0.28125 -0.890625 -0.53125 -1.609375q-0.234375 -0.734375 -0.3125 -0.953125l0.609375 -0.03125q-0.15625 0.453125 -0.390625 1.15625q-0.21875 0.6875 -0.46875 1.46875q-0.25 0.765625 -0.5 1.453125q-0.234375 0.671875 -0.390625 1.125l-4.25 11.140625l-2.921875 0zm3.1875 -4.640625l1.078125 -2.765625l8.46875 0l1.234375 2.765625l-10.78125 0zm17.174927 4.640625l0 -14.0l2.75 0l0 14.0l-2.75 0zm1.328125 -17.09375q-0.875 0 -1.359375 -0.453125q-0.484375 -0.453125 -0.484375 -1.265625q0 -0.78125 0.5 -1.25q0.5 -0.484375 1.34375 -0.484375q0.875 0 1.359375 0.453125q0.484375 0.453125 0.484375 1.28125q0 0.765625 -0.5 1.25q-0.484375 0.46875 -1.34375 0.46875zm11.457291 17.359375q-1.90625 0 -3.421875 -0.9375q-1.5 -0.953125 -2.390625 -2.59375q-0.875 -1.640625 -0.875 -3.75q0 -2.09375 0.859375 -3.734375q0.875 -1.640625 2.359375 -2.578125q1.5 -0.953125 3.390625 -0.953125q1.046875 0 2.015625 0.328125q0.96875 0.328125 1.734375 0.90625q0.78125 0.578125 1.21875 1.265625q0.453125 0.671875 0.453125 1.359375l-0.8125 0.046875l0 -9.34375l2.75 0l0 19.71875l-2.75 0l0 -3.328125l0.546875 0q0 0.640625 -0.4375 1.265625q-0.421875 0.625 -1.125 1.15625q-0.703125 0.53125 -1.625 0.859375q-0.921875 0.3125 -1.890625 0.3125zm0.375 -2.375q1.265625 0 2.21875 -0.640625q0.953125 -0.640625 1.5 -1.734375q0.546875 -1.109375 0.546875 -2.53125q0 -1.40625 -0.546875 -2.515625q-0.546875 -1.109375 -1.5 -1.75q-0.953125 -0.640625 -2.21875 -0.640625q-1.25 0 -2.21875 0.640625q-0.953125 0.640625 -1.5 1.75q-0.546875 1.109375 -0.546875 2.515625q0 1.421875 0.546875 2.53125q0.546875 1.09375 1.5 1.734375q0.96875 0.640625 2.21875 0.640625zm24.613731 2.375q-1.53125 0 -2.828125 -0.390625q-1.28125 -0.40625 -2.34375 -1.21875q-1.046875 -0.8125 -1.875 -2.015625l1.984375 -2.265625q1.296875 1.859375 2.5 2.59375q1.203125 0.71875 2.84375 0.71875q1.015625 0 1.84375 -0.3125q0.828125 -0.328125 1.296875 -0.890625q0.484375 -0.5625 0.484375 -1.28125q0 -0.484375 -0.15625 -0.90625q-0.15625 -0.421875 -0.5 -0.765625q-0.328125 -0.359375 -0.84375 -0.640625q-0.515625 -0.296875 -1.21875 -0.515625q-0.6875 -0.234375 -1.59375 -0.40625q-1.4375 -0.28125 -2.515625 -0.765625q-1.0625 -0.484375 -1.78125 -1.203125q-0.71875 -0.71875 -1.0625 -1.640625q-0.34375 -0.921875 -0.34375 -2.0625q0 -1.125 0.484375 -2.078125q0.5 -0.953125 1.359375 -1.65625q0.875 -0.71875 2.046875 -1.09375q1.171875 -0.390625 2.53125 -0.390625q1.4375 0 2.640625 0.375q1.203125 0.375 2.125 1.109375q0.9375 0.71875 1.546875 1.796875l-2.015625 2.0q-0.53125 -0.890625 -1.203125 -1.484375q-0.671875 -0.609375 -1.46875 -0.90625q-0.796875 -0.3125 -1.703125 -0.3125q-1.03125 0 -1.8125 0.328125q-0.765625 0.3125 -1.21875 0.890625q-0.4375 0.578125 -0.4375 1.34375q0 0.5625 0.21875 1.03125q0.21875 0.46875 0.65625 0.828125q0.4375 0.359375 1.171875 0.640625q0.75 0.265625 1.796875 0.484375q1.46875 0.328125 2.609375 0.828125q1.140625 0.484375 1.9375 1.15625q0.8125 0.65625 1.21875 1.484375q0.421875 0.828125 0.421875 1.78125q0 1.78125 -0.828125 3.09375q-0.828125 1.3125 -2.359375 2.015625q-1.515625 0.703125 -3.609375 0.703125zm16.117813 0q-1.9375 0 -3.46875 -0.953125q-1.53125 -0.96875 -2.4375 -2.609375q-0.890625 -1.65625 -0.890625 -3.71875q0 -2.046875 0.890625 -3.703125q0.90625 -1.65625 2.4375 -2.609375q1.53125 -0.953125 3.46875 -0.953125q1.875 0 3.40625 0.765625q1.53125 0.75 2.328125 2.046875l-1.515625 1.875q-0.421875 -0.609375 -1.09375 -1.109375q-0.671875 -0.515625 -1.421875 -0.8125q-0.734375 -0.296875 -1.4375 -0.296875q-1.28125 0 -2.28125 0.625q-1.0 0.625 -1.59375 1.71875q-0.578125 1.09375 -0.578125 2.453125q0 1.359375 0.609375 2.453125q0.625 1.078125 1.640625 1.71875q1.015625 0.625 2.234375 0.625q0.71875 0 1.390625 -0.234375q0.6875 -0.234375 1.328125 -0.71875q0.640625 -0.484375 1.203125 -1.171875l1.515625 1.859375q-0.859375 1.203125 -2.453125 1.984375q-1.578125 0.765625 -3.28125 0.765625zm14.854797 0q-2.15625 0 -3.828125 -0.921875q-1.671875 -0.921875 -2.625 -2.515625q-0.9375 -1.59375 -0.9375 -3.671875q0 -1.65625 0.53125 -3.015625q0.53125 -1.359375 1.484375 -2.359375q0.953125 -1.0 2.265625 -1.546875q1.3125 -0.546875 2.859375 -0.546875q1.359375 0 2.53125 0.515625q1.1875 0.515625 2.046875 1.421875q0.859375 0.90625 1.328125 2.15625q0.46875 1.234375 0.4375 2.703125l-0.015625 1.171875l-11.4375 0l-0.609375 -2.1875l9.671875 0l-0.40625 0.453125l0 -0.640625q-0.078125 -0.875 -0.59375 -1.5625q-0.5 -0.703125 -1.28125 -1.09375q-0.765625 -0.40625 -1.671875 -0.40625q-1.4375 0 -2.421875 0.546875q-0.984375 0.546875 -1.5 1.609375q-0.5 1.046875 -0.5 2.59375q0 1.453125 0.609375 2.546875q0.625 1.078125 1.734375 1.671875q1.125 0.578125 2.59375 0.578125q1.03125 0 1.921875 -0.34375q0.90625 -0.359375 1.9375 -1.265625l1.390625 1.953125q-0.640625 0.640625 -1.5625 1.125q-0.921875 0.46875 -1.953125 0.75q-1.015625 0.28125 -2.0 0.28125zm9.089249 -0.265625l0 -14.0l2.75 0l0 2.890625l-0.484375 0.3125q0.265625 -0.9375 1.03125 -1.71875q0.78125 -0.78125 1.84375 -1.265625q1.0625 -0.5 2.1875 -0.5q1.59375 0 2.65625 0.625q1.078125 0.625 1.609375 1.90625q0.53125 1.28125 0.53125 3.21875l0 8.53125l-2.75 0l0 -8.34375q0 -1.203125 -0.328125 -1.984375q-0.3125 -0.78125 -0.984375 -1.140625q-0.65625 -0.359375 -1.640625 -0.3125q-0.796875 0 -1.46875 0.25q-0.671875 0.25 -1.171875 0.703125q-0.484375 0.453125 -0.765625 1.0625q-0.265625 0.59375 -0.265625 1.28125l0 8.484375l-1.359375 0q-0.359375 0 -0.703125 0q-0.34375 0 -0.6875 0zm21.235413 0.265625q-1.71875 0 -3.15625 -0.953125q-1.421875 -0.96875 -2.28125 -2.609375q-0.84375 -1.65625 -0.84375 -3.734375q0 -2.109375 0.859375 -3.75q0.875 -1.640625 2.34375 -2.5625q1.484375 -0.9375 3.328125 -0.9375q1.09375 0 2.0 0.328125q0.90625 0.3125 1.578125 0.890625q0.6875 0.5625 1.125 1.3125q0.4375 0.734375 0.546875 1.59375l-0.609375 -0.21875l0 -3.625l2.765625 0l0 14.0l-2.765625 0l0 -3.328125l0.640625 -0.1875q-0.171875 0.71875 -0.671875 1.40625q-0.484375 0.671875 -1.25 1.203125q-0.75 0.53125 -1.671875 0.859375q-0.921875 0.3125 -1.9375 0.3125zm0.734375 -2.53125q1.25 0 2.203125 -0.609375q0.96875 -0.609375 1.5 -1.6875q0.546875 -1.09375 0.546875 -2.46875q0 -1.359375 -0.546875 -2.421875q-0.53125 -1.078125 -1.5 -1.6875q-0.953125 -0.609375 -2.203125 -0.609375q-1.234375 0 -2.1875 0.609375q-0.9375 0.609375 -1.484375 1.6875q-0.546875 1.0625 -0.546875 2.421875q0 1.375 0.546875 2.46875q0.546875 1.078125 1.484375 1.6875q0.953125 0.609375 2.1875 0.609375zm10.763962 2.265625l0 -14.0l2.765625 0l0 4.40625l-0.265625 -1.0625q0.296875 -1.015625 1.0 -1.84375q0.703125 -0.828125 1.625 -1.296875q0.921875 -0.484375 1.90625 -0.484375q0.453125 0 0.859375 0.078125q0.421875 0.078125 0.65625 0.1875l-0.71875 2.984375q-0.3125 -0.140625 -0.703125 -0.234375q-0.390625 -0.09375 -0.75 -0.09375q-0.71875 0 -1.375 0.28125q-0.65625 0.28125 -1.15625 0.78125q-0.484375 0.484375 -0.78125 1.140625q-0.296875 0.65625 -0.296875 1.421875l0 7.734375l-2.765625 0zm11.195557 0l0 -14.0l2.75 0l0 14.0l-2.75 0zm1.328125 -17.09375q-0.875 0 -1.359375 -0.453125q-0.484375 -0.453125 -0.484375 -1.265625q0 -0.78125 0.5 -1.25q0.5 -0.484375 1.34375 -0.484375q0.875 0 1.359375 0.453125q0.484375 0.453125 0.484375 1.28125q0 0.765625 -0.5 1.25q-0.484375 0.46875 -1.34375 0.46875zm11.910416 17.359375q-2.046875 0 -3.65625 -0.9375q-1.609375 -0.953125 -2.546875 -2.59375q-0.9375 -1.640625 -0.9375 -3.75q0 -2.09375 0.9375 -3.734375q0.9375 -1.640625 2.546875 -2.578125q1.609375 -0.953125 3.65625 -0.953125q2.03125 0 3.640625 0.953125q1.625 0.9375 2.546875 2.578125q0.9375 1.640625 0.9375 3.734375q0 2.109375 -0.9375 3.75q-0.921875 1.640625 -2.546875 2.59375q-1.609375 0.9375 -3.640625 0.9375zm0 -2.5q1.265625 0 2.25 -0.625q0.984375 -0.625 1.546875 -1.703125q0.5625 -1.09375 0.53125 -2.453125q0.03125 -1.375 -0.53125 -2.453125q-0.5625 -1.09375 -1.546875 -1.703125q-0.984375 -0.609375 -2.25 -0.609375q-1.25 0 -2.25 0.625q-1.0 0.625 -1.5625 1.703125q-0.546875 1.078125 -0.53125 2.4375q-0.015625 1.359375 0.53125 2.453125q0.5625 1.078125 1.5625 1.703125q1.0 0.625 2.25 0.625zm21.810394 2.234375l0 -15.890625l-5.21875 0l0 -2.765625l13.4843445 0l0 2.765625l-5.3905945 0l0 15.890625l-2.875 0zm9.519562 0l0 -14.0l2.765625 0l0 4.40625l-0.265625 -1.0625q0.296875 -1.015625 1.0 -1.84375q0.703125 -0.828125 1.625 -1.296875q0.921875 -0.484375 1.90625 -0.484375q0.453125 0 0.859375 0.078125q0.421875 0.078125 0.65625 0.1875l-0.71875 2.984375q-0.3125 -0.140625 -0.703125 -0.234375q-0.390625 -0.09375 -0.75 -0.09375q-0.71875 0 -1.375 0.28125q-0.65625 0.28125 -1.15625 0.78125q-0.484375 0.484375 -0.78125 1.140625q-0.296875 0.65625 -0.296875 1.421875l0 7.734375l-2.765625 0zm15.530762 0.265625q-1.71875 0 -3.15625 -0.953125q-1.421875 -0.96875 -2.28125 -2.609375q-0.84375 -1.65625 -0.84375 -3.734375q0 -2.109375 0.859375 -3.75q0.875 -1.640625 2.34375 -2.5625q1.484375 -0.9375 3.328125 -0.9375q1.09375 0 2.0 0.328125q0.90625 0.3125 1.578125 0.890625q0.6875 0.5625 1.125 1.3125q0.4375 0.734375 0.546875 1.59375l-0.609375 -0.21875l0 -3.625l2.765625 0l0 14.0l-2.765625 0l0 -3.328125l0.640625 -0.1875q-0.171875 0.71875 -0.671875 1.40625q-0.484375 0.671875 -1.25 1.203125q-0.75 0.53125 -1.671875 0.859375q-0.921875 0.3125 -1.9375 0.3125zm0.734375 -2.53125q1.25 0 2.203125 -0.609375q0.96875 -0.609375 1.5 -1.6875q0.546875 -1.09375 0.546875 -2.46875q0 -1.359375 -0.546875 -2.421875q-0.53125 -1.078125 -1.5 -1.6875q-0.953125 -0.609375 -2.203125 -0.609375q-1.234375 0 -2.1875 0.609375q-0.9375 0.609375 -1.484375 1.6875q-0.546875 1.0625 -0.546875 2.421875q0 1.375 0.546875 2.46875q0.546875 1.078125 1.484375 1.6875q0.953125 0.609375 2.1875 0.609375zm11.217102 2.265625l0 -14.0l2.75 0l0 14.0l-2.75 0zm1.328125 -17.09375q-0.875 0 -1.359375 -0.453125q-0.484375 -0.453125 -0.484375 -1.265625q0 -0.78125 0.5 -1.25q0.5 -0.484375 1.34375 -0.484375q0.875 0 1.359375 0.453125q0.484375 0.453125 0.484375 1.28125q0 0.765625 -0.5 1.25q-0.484375 0.46875 -1.34375 0.46875zm5.6291504 17.09375l0 -14.0l2.75 0l0 2.890625l-0.484375 0.3125q0.265625 -0.9375 1.03125 -1.71875q0.78125 -0.78125 1.84375 -1.265625q1.0625 -0.5 2.1875 -0.5q1.59375 0 2.65625 0.625q1.078125 0.625 1.609375 1.90625q0.53125 1.28125 0.53125 3.21875l0 8.53125l-2.75 0l0 -8.34375q0 -1.203125 -0.328125 -1.984375q-0.3125 -0.78125 -0.984375 -1.140625q-0.65625 -0.359375 -1.640625 -0.3125q-0.796875 0 -1.46875 0.25q-0.671875 0.25 -1.171875 0.703125q-0.484375 0.453125 -0.765625 1.0625q-0.265625 0.59375 -0.265625 1.28125l0 8.484375l-1.359375 0q-0.359375 0 -0.703125 0q-0.34375 0 -0.6875 0zm16.313538 0l0 -14.0l2.75 0l0 14.0l-2.75 0zm1.328125 -17.09375q-0.875 0 -1.359375 -0.453125q-0.484375 -0.453125 -0.484375 -1.265625q0 -0.78125 0.5 -1.25q0.5 -0.484375 1.34375 -0.484375q0.875 0 1.359375 0.453125q0.484375 0.453125 0.484375 1.28125q0 0.765625 -0.5 1.25q-0.484375 0.46875 -1.34375 0.46875zm5.6291504 17.09375l0 -14.0l2.75 0l0 2.890625l-0.484375 0.3125q0.265625 -0.9375 1.03125 -1.71875q0.78125 -0.78125 1.84375 -1.265625q1.0625 -0.5 2.1875 -0.5q1.59375 0 2.65625 0.625q1.078125 0.625 1.609375 1.90625q0.53125 1.28125 0.53125 3.21875l0 8.53125l-2.75 0l0 -8.34375q0 -1.203125 -0.328125 -1.984375q-0.3125 -0.78125 -0.984375 -1.140625q-0.65625 -0.359375 -1.640625 -0.3125q-0.796875 0 -1.46875 0.25q-0.671875 0.25 -1.171875 0.703125q-0.484375 0.453125 -0.765625 1.0625q-0.265625 0.59375 -0.265625 1.28125l0 8.484375l-1.359375 0q-0.359375 0 -0.703125 0q-0.34375 0 -0.6875 0zm22.126038 6.125q-1.5 0 -2.984375 -0.46875q-1.46875 -0.453125 -2.375 -1.203125l1.015625 -2.140625q0.53125 0.40625 1.25 0.703125q0.71875 0.3125 1.515625 0.484375q0.796875 0.171875 1.578125 0.171875q1.46875 0 2.453125 -0.484375q0.984375 -0.46875 1.484375 -1.40625q0.515625 -0.921875 0.515625 -2.3125l0 -2.6875l0.28125 0.1875q-0.125 0.8125 -0.859375 1.578125q-0.734375 0.765625 -1.828125 1.25q-1.09375 0.46875 -2.234375 0.46875q-2.0 0 -3.5625 -0.9375q-1.5625 -0.953125 -2.46875 -2.59375q-0.90625 -1.640625 -0.90625 -3.75q0 -2.09375 0.890625 -3.734375q0.90625 -1.640625 2.453125 -2.578125q1.5625 -0.953125 3.515625 -0.953125q0.796875 0 1.53125 0.203125q0.75 0.1875 1.390625 0.546875q0.640625 0.359375 1.140625 0.796875q0.515625 0.421875 0.828125 0.90625q0.328125 0.46875 0.40625 0.90625l-0.578125 0.203125l0 -3.28125l2.734375 0l0 13.140625q0 1.6875 -0.5 2.96875q-0.484375 1.296875 -1.421875 2.1875q-0.921875 0.90625 -2.265625 1.359375q-1.328125 0.46875 -3.0 0.46875zm0.109375 -8.390625q1.296875 0 2.3125 -0.609375q1.015625 -0.609375 1.5625 -1.671875q0.5625 -1.078125 0.5625 -2.46875q0 -1.375 -0.578125 -2.453125q-0.5625 -1.09375 -1.5625 -1.703125q-1.0 -0.609375 -2.296875 -0.609375q-1.28125 0 -2.28125 0.625q-1.0 0.625 -1.578125 1.703125q-0.578125 1.078125 -0.578125 2.4375q0 1.359375 0.578125 2.453125q0.578125 1.078125 1.578125 1.6875q1.0 0.609375 2.28125 0.609375z" fill-rule="nonzero"/></g></svg>